<svg viewBox="0 0 24 24" fill="none" stroke="currentColor" stroke-width="2" stroke-linecap="round" stroke-linejoin="round" aria-hidden="true"><path d="M12 15.5C13.933 15.5 15.5 13.933 15.5 12C15.5 10.067 13.933 8.5 12 8.5C10.067 8.5 8.5 10.067 8.5 12C8.5 13.933 10.067 15.5 12 15.5Z"/><path d="M19.4 13.5C19.5 13 19.5 12.5 19.5 12C19.5 11.5 19.5 11 19.4 10.5L21.2 9.1L19.2 5.7L17.1 6.5C16.3 5.8 15.5 5.3 14.5 5L14.2 2.8H10.2L9.9 5C8.9 5.3 8 5.8 7.3 6.5L5.2 5.7L3.2 9.1L5 10.5C4.9 11 4.9 11.5 4.9 12C4.9 12.5 4.9 13 5 13.5L3.2 14.9L5.2 18.3L7.3 17.5C8 18.2 8.9 18.7 9.9 19L10.2 21.2H14.2L14.5 19C15.5 18.7 16.3 18.2 17.1 17.5L19.2 18.3L21.2 14.9L19.4 13.5Z"/></svg>
